# xmcd CD database file
#
# Track frame offsets:
#	150
#	11038
#	25820
#	45523
#	56450
#	71450
#	86329
#	97249
#	109004
#	127181
#	139803
#	152061
#	162686
#	186095
#	198275
#	210656
#	219527
#	234785
#	241572
#	249576
#	260525
#	275593
#
# Disc length: 3795 seconds
#
# Revision: 2
# Processed by: cddbd v1.4PL0 Copyright (c) Steve Scherf et al.
# Submitted via: CDex 1.40Release
#
DISCID=360ed116
DTITLE=Tony Tammaro - Tutto Tony Tammaro Vol. 2
DYEAR=1999
DGENRE=Satire
TTITLE0=O' Trerrote
TTITLE1=La Villeggiatura
TTITLE2=Serenata Cell
TTITLE3=Se Potrei Avere Te
TTITLE4=Il Mozzarellista
TTITLE5=Bottana
TTITLE6=Pronto Marì
TTITLE7=Torregaveta
TTITLE8=Tango Dei Tamarri
TTITLE9=Dint''a Villa
TTITLE10=Casa Cascella
TTITLE11=Alla Fiera Dell'Est
TTITLE12=Un'altra Guerra
TTITLE13='A Cinquecento
TTITLE14=L'animale
TTITLE15=Si Piglio 'o Posto
TTITLE16=Ballerino
TTITLE17=Nella Vecchia Fattoria
TTITLE18=Samba Du Gassu
TTITLE19=Puzzulan Rap
TTITLE20=Karaoke
TTITLE21=Il Rock Dei Tamarri
EXTD=YEAR: 1999 ID3G: 110
EXTT0=
EXTT1=
EXTT2=
EXTT3=
EXTT4=
EXTT5=
EXTT6=
EXTT7=
EXTT8=
EXTT9=
EXTT10=
EXTT11=
EXTT12=
EXTT13=
EXTT14=
EXTT15=
EXTT16=
EXTT17=
EXTT18=
EXTT19=
EXTT20=
EXTT21=
PLAYORDER=
